<?xml version="1.0" encoding="utf-8"?>
<!-- Generator: Adobe Illustrator 23.0.1, SVG Export Plug-In . SVG Version: 6.00 Build 0)  -->
<svg version="1.1" id="Layer_1" xmlns="http://www.w3.org/2000/svg" xmlns:xlink="http://www.w3.org/1999/xlink" x="0px" y="0px"
	 viewBox="0 0 576 288" style="enable-background:new 0 0 576 288;" xml:space="preserve">
<style type="text/css">
	.st0{fill:#002F6C;}
	.st1{fill:#E9741C;}
</style>
<path class="st0" d="M450.6,160.9l8.8-10.6c6.1,5,12.5,8.3,20.3,8.3c6.1,0,9.8-2.4,9.8-6.4V152c0-3.8-2.3-5.7-13.7-8.6
	c-13.7-3.5-22.5-7.3-22.5-20.8v-0.2c0-12.3,9.9-20.5,23.8-20.5c9.9,0,18.4,3.1,25.2,8.6l-7.8,11.3c-6-4.2-11.9-6.7-17.7-6.7
	c-5.7,0-8.7,2.6-8.7,5.9v0.2c0,4.5,2.9,5.9,14.7,8.9c13.8,3.6,21.6,8.5,21.6,20.4v0.2c0,13.5-10.3,21.1-25,21.1
	C469.2,171.8,458.8,168.2,450.6,160.9"/>
<path class="st1" d="M130.5,106.2c-6.3-4.6-13.9-7-21.7-7c-20.5,0-37.2,16.7-37.2,37.2c0,20.5,16.7,37.2,37.2,37.2
	c7.8,0,15.4-2.5,21.7-7v3.7h15.4v-68.2h-15.4V106.2z M130.5,136.3c0,12-9.7,21.7-21.7,21.7c-12,0-21.7-9.7-21.7-21.7
	c0-12,9.7-21.7,21.7-21.7C120.7,114.5,130.5,124.3,130.5,136.3"/>
<path class="st0" d="M359.1,106.2c-6.3-4.6-13.9-7-21.7-7c-20.5,0-37.2,16.7-37.2,37.2c0,20.5,16.7,37.2,37.2,37.2
	c7.8,0,15.4-2.5,21.7-7v3.7h15.4v-68.2h-15.4V106.2z M337.3,158c-12,0-21.7-9.7-21.7-21.7c0-12,9.7-21.7,21.7-21.7
	c12,0,21.7,9.7,21.7,21.7C359.1,148.3,349.3,158,337.3,158"/>
<path class="st0" d="M278,147c0,5.2-4.2,9.4-9.4,9.4c-5.2,0-9.4-4.2-9.4-9.4v-45.1h-15.4V147c0,5.2-4.2,9.4-9.4,9.4
	s-9.4-4.2-9.4-9.4v-45.1h-15.4V147c0,13.7,11.2,24.9,24.9,24.9c6.4,0,12.6-2.5,17.2-6.9c4.6,4.4,10.8,6.9,17.2,6.9
	c13.7,0,24.9-11.2,24.9-24.9v-45.1H278V147z"/>
<path class="st0" d="M427.5,142.1c0,7.9-6.4,14.4-14.4,14.4s-14.4-6.4-14.4-14.4v-40.2h-15.4v40.2c0,16.4,13.4,29.8,29.8,29.8
	c5.6,0,10.9-1.5,15.5-4.4v25.3c0,8.2-4.5,15.7-11.7,19.6l-0.9,0.5v5.7l1.8-0.1c13.8-0.4,25-11.9,25-25.8v-90.8h-15.4V142.1z"/>
<path class="st1" d="M170.5,148.4l0-0.1c-0.1-0.5-0.1-0.9-0.1-1.3V69.4H155V147c0,13.7,11.2,24.9,24.9,24.9h1.8v-6.1l-0.8-0.5
	C174.8,161.6,171,155.3,170.5,148.4"/>
<path class="st1" d="M198,148.4l0-0.1c-0.1-0.5-0.1-0.9-0.1-1.3V69.4h-15.4V147c0,13.7,11.2,24.9,24.9,24.9h1.8v-6.1l-0.8-0.5
	C202.3,161.6,198.5,155.3,198,148.4"/>
<path class="st0" d="M89.6,200.7v17.7h3.7v-7.5h9.9v7.5h3.7v-17.7h-3.7v7.4h-9.9v-7.4H89.6z M115.1,200.7v17.7h12.6v-2.7h-8.9v-5
	h8.3V208h-8.3v-4.6h8.7v-2.7H115.1z M140.9,200.7l-7.9,17.7h3.9l1.9-4.3h8.5l2,4.3h3.9l-8.5-17.7H140.9z M142.8,204.5l3.2,7h-6.2
	L142.8,204.5z M159.3,200.7v17.7h13v-2.7H163v-15H159.3z M174.8,200.7v2.7h6.8v15h3.7v-15h6.8v-2.7H174.8z M198.9,200.7v17.7h3.7
	v-7.5h9.9v7.5h3.7v-17.7h-3.7v7.4h-9.9v-7.4H198.9z M236.1,200.7v17.7h3.7V211h3.6c1.9,0,3.3-0.5,4.5-1.4c1.1-0.9,1.7-2.2,1.7-3.7
	c0-1.5-0.6-2.7-1.7-3.7c-1.1-1-2.6-1.4-4.4-1.4H236.1z M239.8,208.3v-4.9h2.5c2.3,0,3.4,0.8,3.4,2.4c0,0.8-0.3,1.4-0.8,1.9
	c-0.6,0.4-1.3,0.6-2.3,0.6H239.8z M259.9,200.7l-7.9,17.7h3.9l1.8-4.3h8.5l2,4.3h3.9l-8.5-17.7H259.9z M261.8,204.5l3.2,7h-6.2
	L261.8,204.5z M277.9,200.7v17.7h3.7v-7.5h1.3c0.6,0,1.1,0.1,1.6,0.4s0.9,0.7,1.4,1.4c0.5,0.7,1.3,1.9,2.3,3.8
	c0.5,0.9,0.9,1.5,1.2,1.9h4.1c-0.6-0.8-1.4-2.3-2.6-4.4c-0.7-1.2-1.3-2.1-1.8-2.6c-0.5-0.5-1-0.9-1.6-1.2c1.1-0.4,1.9-1,2.5-1.8
	c0.6-0.7,0.8-1.6,0.8-2.6c0-1.5-0.6-2.7-1.7-3.6c-1.1-0.9-2.6-1.4-4.4-1.4H277.9z M281.6,208.2v-4.9h2.3c1,0,1.8,0.2,2.3,0.6
	c0.5,0.4,0.8,1,0.8,1.8c0,0.8-0.3,1.4-0.8,1.8c-0.6,0.4-1.3,0.7-2.3,0.7H281.6z M297.1,200.7v2.7h6.8v15h3.7v-15h6.8v-2.7H297.1z
	 M320.9,200.7v17.7h3.6v-12.5l11.4,12.5h3.2v-17.7h-3.6V213l-11.4-12.3H320.9z M347,200.7v17.7h12.6v-2.7h-8.9v-5h8.3V208h-8.3v-4.6
	h8.7v-2.7H347z M367.9,200.7v17.7h3.7v-7.5h1.3c0.6,0,1.1,0.1,1.6,0.4s0.9,0.7,1.4,1.4c0.5,0.7,1.3,1.9,2.3,3.8
	c0.5,0.9,0.9,1.5,1.2,1.9h4.1c-0.6-0.8-1.4-2.3-2.6-4.4c-0.7-1.2-1.3-2.1-1.8-2.6c-0.5-0.5-1-0.9-1.6-1.2c1.1-0.4,1.9-1,2.5-1.8
	c0.6-0.7,0.8-1.6,0.8-2.6c0-1.5-0.6-2.7-1.7-3.6c-1.1-0.9-2.6-1.4-4.4-1.4H367.9z M371.6,208.2v-4.9h2.3c1,0,1.8,0.2,2.3,0.6
	c0.5,0.4,0.8,1,0.8,1.8c0,0.8-0.3,1.4-0.8,1.8c-0.6,0.4-1.3,0.7-2.3,0.7H371.6z M391.1,201.8c-1.2,0.9-1.8,2.1-1.8,3.5
	c0,1.1,0.4,2.1,1.1,2.9c0.7,0.8,1.9,1.6,3.4,2.2c1.3,0.6,2.3,1,3.1,1.5c1,0.5,1.5,1.2,1.5,2c0,0.6-0.3,1.1-0.8,1.4
	c-0.6,0.4-1.3,0.5-2.2,0.5c-1.8,0-3.7-0.8-5.8-2.3v3.4c1.1,0.6,2.1,1,3,1.3c0.9,0.2,1.9,0.4,3.2,0.4c1.9,0,3.4-0.5,4.6-1.4
	c1.2-0.9,1.8-2.2,1.8-3.7c0-1.2-0.3-2.2-1-3c-0.7-0.8-1.8-1.6-3.4-2.3c-1.8-0.8-2.9-1.2-3.2-1.4c-1-0.6-1.5-1.2-1.5-1.8
	c0-0.6,0.3-1,0.8-1.3c0.5-0.3,1.3-0.5,2.2-0.5c1.5,0,3.3,0.6,5.3,1.7v-3c-1.7-0.9-3.5-1.3-5.4-1.3
	C393.9,200.5,392.3,200.9,391.1,201.8"/>
</svg>
