<svg width="49" height="49" viewBox="0 0 49 49" fill="none" xmlns="http://www.w3.org/2000/svg">
<path d="M48.6665 24.5C48.6665 37.7548 37.9213 48.5 24.6665 48.5C11.4117 48.5 0.666504 37.7548 0.666504 24.5C0.666504 11.2452 11.4117 0.5 24.6665 0.5C37.9213 0.5 48.6665 11.2452 48.6665 24.5ZM4.56486 24.5C4.56486 35.6018 13.5647 44.6016 24.6665 44.6016C35.7683 44.6016 44.7681 35.6018 44.7681 24.5C44.7681 13.3982 35.7683 4.39836 24.6665 4.39836C13.5647 4.39836 4.56486 13.3982 4.56486 24.5Z" fill="#1DCDFE" fill-opacity="0.2"/>
<path d="M15.9165 29.5H17.4005V27.743H18.4015V26.357H17.4005V23.627H15.9165V26.357H13.0395L16.3155 19.42H14.6425L11.3665 26.357V27.743H15.9165V29.5ZM22.6511 29.71C23.2811 29.71 23.8597 29.5583 24.3871 29.255C24.9191 28.9517 25.3461 28.5457 25.6681 28.037C25.9901 27.5237 26.1511 26.9543 26.1511 26.329C26.1511 25.699 26.0087 25.1343 25.7241 24.635C25.4441 24.1357 25.0567 23.7437 24.5621 23.459C24.0721 23.1697 23.5121 23.025 22.8821 23.025C22.5834 23.025 22.2824 23.0717 21.9791 23.165C21.6804 23.2583 21.4074 23.3937 21.1601 23.571L21.3281 20.799H25.4581V19.42H20.0191L19.7111 24.719L20.9851 25.167C21.1437 24.957 21.3654 24.7703 21.6501 24.607C21.9347 24.439 22.2824 24.355 22.6931 24.355C23.0524 24.355 23.3814 24.4437 23.6801 24.621C23.9834 24.7937 24.2237 25.0293 24.4011 25.328C24.5831 25.6267 24.6741 25.9603 24.6741 26.329C24.6741 26.6883 24.5854 27.0173 24.4081 27.316C24.2307 27.6147 23.9927 27.8527 23.6941 28.03C23.3954 28.2073 23.0617 28.296 22.6931 28.296C22.2731 28.296 21.8787 28.1653 21.5101 27.904C21.1461 27.638 20.9057 27.281 20.7891 26.833L19.3821 27.211C19.5221 27.701 19.7507 28.135 20.0681 28.513C20.3854 28.8863 20.7657 29.1803 21.2091 29.395C21.6524 29.605 22.1331 29.71 22.6511 29.71ZM29.7842 24.25C30.2462 24.25 30.6662 24.138 31.0442 23.914C31.4268 23.6853 31.7325 23.382 31.9612 23.004C32.1898 22.6213 32.3042 22.1967 32.3042 21.73C32.3042 21.2633 32.1898 20.841 31.9612 20.463C31.7325 20.0803 31.4268 19.777 31.0442 19.553C30.6662 19.3243 30.2462 19.21 29.7842 19.21C29.3362 19.21 28.9208 19.3243 28.5382 19.553C28.1555 19.7817 27.8475 20.0873 27.6142 20.47C27.3808 20.8527 27.2642 21.2727 27.2642 21.73C27.2642 22.1967 27.3785 22.6213 27.6072 23.004C27.8358 23.382 28.1392 23.6853 28.5172 23.914C28.8998 24.138 29.3222 24.25 29.7842 24.25ZM28.6642 29.5L37.7712 20.407L36.7912 19.42L27.6842 28.52L28.6642 29.5ZM29.7842 22.983C29.4435 22.983 29.1495 22.8593 28.9022 22.612C28.6548 22.3647 28.5312 22.0707 28.5312 21.73C28.5312 21.3893 28.6548 21.0953 28.9022 20.848C29.1495 20.6007 29.4435 20.477 29.7842 20.477C30.1248 20.477 30.4188 20.6007 30.6662 20.848C30.9135 21.0953 31.0372 21.3893 31.0372 21.73C31.0372 22.0707 30.9135 22.3647 30.6662 22.612C30.4188 22.8593 30.1248 22.983 29.7842 22.983ZM35.6712 29.71C36.1332 29.71 36.5532 29.598 36.9312 29.374C37.3138 29.1453 37.6195 28.842 37.8482 28.464C38.0768 28.0813 38.1912 27.6567 38.1912 27.19C38.1912 26.7233 38.0768 26.301 37.8482 25.923C37.6195 25.5403 37.3138 25.237 36.9312 25.013C36.5532 24.7843 36.1332 24.67 35.6712 24.67C35.2232 24.67 34.8078 24.7843 34.4252 25.013C34.0425 25.2417 33.7345 25.5473 33.5012 25.93C33.2678 26.3127 33.1512 26.7327 33.1512 27.19C33.1512 27.6567 33.2632 28.0813 33.4872 28.464C33.7158 28.842 34.0215 29.1453 34.4042 29.374C34.7868 29.598 35.2092 29.71 35.6712 29.71ZM35.6712 28.443C35.3305 28.443 35.0365 28.3193 34.7892 28.072C34.5418 27.8247 34.4182 27.5307 34.4182 27.19C34.4182 26.8493 34.5418 26.5553 34.7892 26.308C35.0365 26.0607 35.3305 25.937 35.6712 25.937C36.0118 25.937 36.3058 26.0607 36.5532 26.308C36.8005 26.5553 36.9242 26.8493 36.9242 27.19C36.9242 27.5307 36.8005 27.8247 36.5532 28.072C36.3058 28.3193 36.0118 28.443 35.6712 28.443Z" fill="#0074E6"/>
<path d="M48.6665 24.5C48.6665 20.2086 47.5159 15.9957 45.3344 12.3001C43.153 8.60456 40.0206 5.56147 36.2635 3.48785C32.5063 1.41422 28.2619 0.385919 23.9723 0.510041C19.6828 0.634162 15.5049 1.90617 11.874 4.19357C8.24302 6.48098 5.29181 9.7001 3.32772 13.5156C1.36363 17.3312 0.45852 21.6035 0.706659 25.8877C0.954798 30.1719 2.34711 34.3113 4.73858 37.8745C7.13004 41.4378 10.4332 44.2947 14.3039 46.1476L15.9871 42.6313C12.7451 41.0794 9.97852 38.6866 7.9755 35.7021C5.97249 32.7176 4.80633 29.2506 4.5985 25.6623C4.39066 22.074 5.14876 18.4956 6.79381 15.2998C8.43887 12.1041 10.9107 9.40784 13.9519 7.49198C16.993 5.57612 20.4923 4.51073 24.0851 4.40677C27.6779 4.30281 31.2329 5.16408 34.3798 6.90089C37.5266 8.63769 40.1502 11.1865 41.9773 14.2818C43.8044 17.3771 44.7681 20.9057 44.7681 24.5H48.6665Z" fill="#0074E6"/>
</svg>
